<?xml version="1.0" encoding="UTF-8"?>
<svg version="1.1" xmlns="http://www.w3.org/2000/svg" width="336" height="120">
<path d="M0 0 C110.88 0 221.76 0 336 0 C336 39.6 336 79.2 336 120 C225.12 120 114.24 120 0 120 C0 80.4 0 40.8 0 0 Z " fill="#353537" transform="translate(0,0)"/>
<path d="M0 0 C4.62 0 9.24 0 14 0 C17.98025827 22.29246675 21.86527959 44.5701993 25 67 C21.7 67 18.4 67 15 67 C13.69272662 61.6074973 13 57.64347623 13 52 C9.04 52 5.08 52 1 52 C0.855625 53.7325 0.71125 55.465 0.5625 57.25 C0.27688169 60.67741974 -0.16055822 63.64223287 -1 67 C-4.3 67 -7.6 67 -11 67 C-7.6333995 44.60713785 -4.13486055 22.26604113 0 0 Z " fill="#FBFBFB" transform="translate(303,12)"/>
<path d="M0 0 C4.62 0 9.24 0 14 0 C15.30897017 7.84894722 16.61382053 15.69854577 17.91151428 23.54936409 C18.5143039 27.19512325 19.11886491 30.84056984 19.72753906 34.48535156 C20.31531835 38.0054208 20.89835958 41.52624548 21.47817993 45.04763412 C21.69976656 46.38826102 21.92303391 47.72861127 22.14804077 49.06866837 C22.46387381 50.95144185 22.77307813 52.83532361 23.08203125 54.71923828 C23.34850464 56.32474045 23.34850464 56.32474045 23.62036133 57.962677 C24.0011506 61.00920544 24.06747907 63.93325561 24 67 C20.7 67 17.4 67 14 67 C13.34 62.38 12.68 57.76 12 53 C8.37 52.67 4.74 52.34 1 52 C0.34 56.95 -0.32 61.9 -1 67 C-4.3 67 -7.6 67 -11 67 C-9.13441902 53.53009188 -7.09350834 40.10128934 -4.83789062 26.69116211 C-4.36532 23.87991525 -3.89727823 21.06793842 -3.4296875 18.25585938 C-3.12786364 16.45047744 -2.82579027 14.64513719 -2.5234375 12.83984375 C-2.31562149 11.59158058 -2.31562149 11.59158058 -2.10360718 10.31809998 C-1.97322052 9.54531204 -1.84283386 8.77252411 -1.70849609 7.97631836 C-1.53886856 6.96546425 -1.53886856 6.96546425 -1.36581421 5.93418884 C-0.988608 3.93976648 -0.49229386 1.96917542 0 0 Z " fill="#FCFCFC" transform="translate(231,12)"/>
<path d="M0 0 C3.3 0 6.6 0 10 0 C10.00586624 0.68238235 10.01173248 1.36476471 10.01777649 2.06782532 C10.0816067 9.15673985 10.16599941 16.24519602 10.26245117 23.33374023 C10.29574872 25.98081426 10.32376542 28.62796011 10.34643555 31.27514648 C10.37989211 35.0756701 10.43220486 38.87553255 10.48828125 42.67578125 C10.49467117 43.86335526 10.5010611 45.05092926 10.50764465 46.27449036 C10.53733589 47.9258625 10.53733589 47.9258625 10.56762695 49.6105957 C10.57873001 50.58100296 10.58983307 51.55141022 10.60127258 52.55122375 C10.81531282 55.04543792 10.81531282 55.04543792 12.36686707 56.84465027 C14.01605241 58.26319311 14.01605241 58.26319311 16.5625 57.875 C19.3261611 57.15610832 19.3261611 57.15610832 21 54 C21.3280304 51.51562053 21.3280304 51.51562053 21.31884766 48.70239258 C21.33871735 47.62149857 21.35858704 46.54060455 21.37905884 45.42695618 C21.39061005 44.26125595 21.40216125 43.09555573 21.4140625 41.89453125 C21.43342865 40.70018967 21.4527948 39.50584808 21.4727478 38.27531433 C21.53260616 34.45444924 21.57895454 30.63355413 21.625 26.8125 C21.66317397 24.22459612 21.70222535 21.63670501 21.7421875 19.04882812 C21.83831291 12.69933209 21.92334218 6.34975928 22 0 C24.97 0 27.94 0 31 0 C31.09287747 7.45852442 31.16385431 14.91692317 31.20724869 22.37590981 C31.2280811 25.83984499 31.25631739 29.30338313 31.30175781 32.76708984 C31.35372585 36.75353159 31.37298133 40.73981525 31.390625 44.7265625 C31.41127014 45.96427399 31.43191528 47.20198547 31.45318604 48.47720337 C31.45596779 59.16460294 31.45596779 59.16460294 27 64 C22.75472849 67.73069314 18.84639268 68.36788263 13.34765625 68.26953125 C9.46602342 67.82388622 6.92883487 66.5425918 4 64 C-0.51599663 57.0607362 -0.53242641 51.09860547 -0.390625 42.96875 C-0.38496521 41.73709106 -0.37930542 40.50543213 -0.37347412 39.2364502 C-0.35118231 35.3238956 -0.30099621 31.41227526 -0.25 27.5 C-0.2276594 24.83855507 -0.21167683 22.17711891 -0.1953125 19.515625 C-0.15134088 13.01010087 -0.08449946 6.50511721 0 0 Z " fill="#FEFEFE" transform="translate(185,12)"/>
<path d="M0 0 C4.004793 2.0023965 6.6587028 4.17998877 9 8 C10.1577506 11.47325181 10.06866652 14.36067448 10 18 C5.05 18.495 5.05 18.495 0 19 C-0.12375 17.88625 -0.2475 16.7725 -0.375 15.625 C-0.6465813 11.96896323 -0.6465813 11.96896323 -3 10 C-5.5 9.66666667 -5.5 9.66666667 -8 10 C-10.33152308 11.91725994 -10.33152308 11.91725994 -10.375 15.25 C-9.70568605 21.94313954 -5.0476372 26.23063775 -0.5625 30.9375 C6.70099365 38.71225314 11.38668106 44.23844564 11.28515625 55.203125 C10.77383867 60.21823989 8.6900624 63.4155665 5 66.875 C0.41139842 69.45608839 -4.8613692 69.74131067 -10 69 C-14.37268337 67.24487449 -17.27226923 65.0233714 -20 61.1875 C-21.24501028 57.21902974 -21.21435513 54.14419918 -21 50 C-16.545 49.505 -16.545 49.505 -12 49 C-11.57682292 51.01822917 -11.15364583 53.03645833 -10.73046875 55.0546875 C-10.07691162 57.37046549 -10.07691162 57.37046549 -7 59 C-3.92334973 58.91778291 -3.92334973 58.91778291 -1 58 C1.28296054 55.15869804 1.28296054 55.15869804 1.0625 51.8125 C-0.78537684 45.18188309 -5.82073758 41.14694145 -10.625 36.4375 C-16.94865861 30.17068326 -20.38643453 24.62435011 -21.375 15.5625 C-20.7544461 9.66723794 -18.67147108 5.63070349 -14.4375 1.5 C-9.56072483 -0.62804735 -5.24124935 -0.77994782 0 0 Z " fill="#FAFAFA" transform="translate(279,11)"/>
<path d="M0 0 C9.57 0 19.14 0 29 0 C29 2.97 29 5.94 29 9 C22.73 9 16.46 9 10 9 C10 15.27 10 21.54 10 28 C14.95 28 19.9 28 25 28 C25 31.3 25 34.6 25 38 C20.05 38 15.1 38 10 38 C10 44.6 10 51.2 10 58 C16.27 58 22.54 58 29 58 C29 60.97 29 63.94 29 67 C19.43 67 9.86 67 0 67 C0 44.89 0 22.78 0 0 Z " fill="#F9F9F9" transform="translate(119,12)"/>
<path d="M0 0 C0.33 0 0.66 0 1 0 C1.00142502 0.65066437 1.00285004 1.30132874 1.00431824 1.97171021 C1.02402735 8.75305158 1.07832778 15.5334943 1.15258789 22.31445312 C1.17576361 24.8440099 1.19016257 27.37366312 1.19555664 29.90332031 C1.20484865 33.54292878 1.2458493 37.18102121 1.29296875 40.8203125 C1.2890361 41.94865509 1.28510345 43.07699768 1.28105164 44.23953247 C1.3350848 50.9489486 1.3350848 50.9489486 4.41918945 56.69873047 C7.77505392 59.6911038 9.41334603 60.18718677 13.8125 60.3125 C14.66457031 60.34988281 15.51664063 60.38726562 16.39453125 60.42578125 C20.48346092 59.75757535 22.77359505 57.65001411 25.2199707 54.35864258 C26.4435215 52.51424476 27.60618564 50.64480358 28.75 48.75 C30.14135147 46.48061119 31.55356916 44.23539312 33 42 C33.33 42 33.66 42 34 42 C34 48.93 34 55.86 34 63 C15.85 63 -2.3 63 -21 63 C-20.01 61.35 -19.02 59.7 -18 58 C-17.75406009 55.26531541 -17.75406009 55.26531541 -18.05078125 52.37109375 C-18.9018496 32.38556055 -13.40445169 20.54911824 -2.56640625 4.35302734 C-1.00417501 2.11115765 -1.00417501 2.11115765 0 0 Z " fill="#F9F9F9" transform="translate(35,42)"/>
<path d="M0 0 C16.5 0 33 0 50 0 C51.50074433 25.31255443 50.91295866 41.79514442 35 62 C34.01 62.495 34.01 62.495 33 63 C32.99453156 62.06158768 32.99453156 62.06158768 32.98895264 61.10421753 C32.94708526 54.5824492 32.87770955 48.06138184 32.79248047 41.54003906 C32.76428549 39.10749325 32.74306368 36.67485608 32.72900391 34.2421875 C32.70755492 30.74171218 32.66089157 27.24233369 32.609375 23.7421875 C32.60814636 22.65759247 32.60691772 21.57299744 32.60565186 20.45553589 C32.48773835 14.35251852 32.11051333 10.6326284 28 6 C23.98568189 3.26296493 19.69002386 3.26076682 15 4 C8.91170823 7.35477302 6.03820279 13.48282085 2.63671875 19.33203125 C2.09660156 20.21246094 1.55648438 21.09289062 1 22 C0.67 22 0.34 22 0 22 C0 14.74 0 7.48 0 0 Z " fill="#FDFDFD" transform="translate(19,10)"/>
<path d="M0 0 C3.3 0 6.6 0 10 0 C10 19.14 10 38.28 10 58 C15.94 58 21.88 58 28 58 C28 60.97 28 63.94 28 67 C18.76 67 9.52 67 0 67 C0 44.89 0 22.78 0 0 Z " fill="#FEFEFE" transform="translate(153,12)"/>
<path d="M0 0 C3.3 0 6.6 0 10 0 C10 19.14 10 38.28 10 58 C15.94 58 21.88 58 28 58 C28 60.97 28 63.94 28 67 C18.76 67 9.52 67 0 67 C0 44.89 0 22.78 0 0 Z " fill="#FEFEFE" transform="translate(87,12)"/>
<path d="M0 0 C2.31 0 4.62 0 7 0 C8.32 3.63 9.64 7.26 11 11 C11.7115625 8.5559375 11.7115625 8.5559375 12.4375 6.0625 C13.875 1.125 13.875 1.125 15 0 C16.98 0 18.96 0 21 0 C21 6.27 21 12.54 21 19 C19.68 19 18.36 19 17 19 C16.67 16.03 16.34 13.06 16 10 C15.01 12.97 14.02 15.94 13 19 C11.68 19 10.36 19 9 19 C7.68 15.04 6.36 11.08 5 7 C4.67 10.96 4.34 14.92 4 19 C2.68 19 1.36 19 0 19 C0 12.73 0 6.46 0 0 Z " fill="#F5F5F5" transform="translate(249,86)"/>
<path d="M0 0 C1.65 0 3.3 0 5 0 C6.765625 1.8984375 6.765625 1.8984375 8.25 4.375 C9.00023438 5.59316406 9.00023438 5.59316406 9.765625 6.8359375 C10.54608857 8.20421857 11.29554043 9.59108085 12 11 C12.33 7.37 12.66 3.74 13 0 C14.32 0 15.64 0 17 0 C17 6.27 17 12.54 17 19 C15.35 19 13.7 19 12 19 C10.19921875 16.8125 10.19921875 16.8125 8.6875 14 C8.17574219 13.071875 7.66398437 12.14375 7.13671875 11.1875 C6.76160156 10.465625 6.38648437 9.74375 6 9 C5.67 12.3 5.34 15.6 5 19 C3.35 19 1.7 19 0 19 C0 12.73 0 6.46 0 0 Z " fill="#F0F0F0" transform="translate(104,86)"/>
<path d="M0 0 C10.17966102 -0.48474576 10.17966102 -0.48474576 13.75 1.625 C15.44394469 4.84349491 14.93711185 6.5398947 14 10 C13.773125 10.680625 13.54625 11.36125 13.3125 12.0625 C12.8716356 14.79585931 13.84076717 16.54515402 15 19 C13.35 18.67 11.7 18.34 10 18 C9.34 16.02 8.68 14.04 8 12 C6.68 12 5.36 12 4 12 C4 14.31 4 16.62 4 19 C2.68 19 1.36 19 0 19 C0 12.73 0 6.46 0 0 Z " fill="#F4F4F4" transform="translate(162,86)"/>
<path d="M0 0 C1.65 0 3.3 0 5 0 C6.80078125 2.1875 6.80078125 2.1875 8.3125 5 C8.82425781 5.928125 9.33601563 6.85625 9.86328125 7.8125 C10.23839844 8.534375 10.61351562 9.25625 11 10 C11.33 6.7 11.66 3.4 12 0 C13.32 0 14.64 0 16 0 C16 6.27 16 12.54 16 19 C14.35 19 12.7 19 11 19 C9.19921875 16.8125 9.19921875 16.8125 7.6875 14 C7.17574219 13.071875 6.66398437 12.14375 6.13671875 11.1875 C5.76160156 10.465625 5.38648438 9.74375 5 9 C4.67 12.3 4.34 15.6 4 19 C2.68 19 1.36 19 0 19 C0 12.73 0 6.46 0 0 Z " fill="#FAFAFA" transform="translate(293,86)"/>
<path d="M0 0 C1.65 0 3.3 0 5 0 C6.80078125 2.1875 6.80078125 2.1875 8.3125 5 C8.82425781 5.928125 9.33601562 6.85625 9.86328125 7.8125 C10.23839844 8.534375 10.61351562 9.25625 11 10 C11.33 6.7 11.66 3.4 12 0 C13.32 0 14.64 0 16 0 C16 6.27 16 12.54 16 19 C11 18 11 18 9.19921875 15.71484375 C8.70035156 14.79832031 8.20148438 13.88179687 7.6875 12.9375 C7.17574219 12.01839844 6.66398438 11.09929687 6.13671875 10.15234375 C5.57404297 9.08693359 5.57404297 9.08693359 5 8 C4.67 11.63 4.34 15.26 4 19 C2.68 19 1.36 19 0 19 C0 12.73 0 6.46 0 0 Z " fill="#F8F8F8" transform="translate(228,86)"/>
<path d="M0 0 C1.98 0 3.96 0 6 0 C7.00380916 2.79035046 8.0031945 5.58214855 9 8.375 C9.28617188 9.1690625 9.57234375 9.963125 9.8671875 10.78125 C10.13789063 11.54179688 10.40859375 12.30234375 10.6875 13.0859375 C10.93886719 13.7876709 11.19023437 14.4894043 11.44921875 15.21240234 C12 17 12 17 12 19 C10.35 19 8.7 19 7 19 C7 17.68 7 16.36 7 15 C4.36 15 1.72 15 -1 15 C-1.33 16.32 -1.66 17.64 -2 19 C-3.32 19 -4.64 19 -6 19 C-4.70024676 12.28460827 -2.70071112 6.27980887 0 0 Z " fill="#F7F7F8" transform="translate(203,86)"/>
<path d="M0 0 C4.29 0 8.58 0 13 0 C13 0.99 13 1.98 13 3 C10.03 3 7.06 3 4 3 C4 4.65 4 6.3 4 8 C6.97 8 9.94 8 13 8 C13 8.99 13 9.98 13 11 C10.03 11 7.06 11 4 11 C4 12.32 4 13.64 4 15 C6.97 15 9.94 15 13 15 C13 16.32 13 17.64 13 19 C8.71 19 4.42 19 0 19 C0 12.73 0 6.46 0 0 Z " fill="#F7F7F7" transform="translate(275,86)"/>
<path d="M0 0 C4.29 0 8.58 0 13 0 C13 0.99 13 1.98 13 3 C10.03 3 7.06 3 4 3 C4 4.65 4 6.3 4 8 C6.64 8 9.28 8 12 8 C12 8.99 12 9.98 12 11 C9.36 11 6.72 11 4 11 C4 12.32 4 13.64 4 15 C6.97 15 9.94 15 13 15 C13 16.32 13 17.64 13 19 C8.71 19 4.42 19 0 19 C0 12.73 0 6.46 0 0 Z " fill="#F8F8F8" transform="translate(145,86)"/>
<path d="M0 0 C4.29 0 8.58 0 13 0 C13 0.99 13 1.98 13 3 C10.03 3 7.06 3 4 3 C4 4.65 4 6.3 4 8 C6.64 8 9.28 8 12 8 C12 8.99 12 9.98 12 11 C9.36 11 6.72 11 4 11 C4 12.32 4 13.64 4 15 C6.97 15 9.94 15 13 15 C13 16.32 13 17.64 13 19 C8.71 19 4.42 19 0 19 C0 12.73 0 6.46 0 0 Z " fill="#F8F8F9" transform="translate(87,86)"/>
<path d="M0 0 C1.53610908 2.80167599 2.36286291 5.21846878 2.8515625 8.37109375 C2.98046875 9.19287109 3.109375 10.01464844 3.2421875 10.86132812 C3.36851562 11.71146484 3.49484375 12.56160156 3.625 13.4375 C3.7590625 14.28376953 3.893125 15.13003906 4.03125 16.00195312 C4.64979432 20.03195869 5.18480082 23.90918185 5 28 C2.03 28 -0.94 28 -4 28 C-3.52366991 24.27046531 -3.04343748 20.54144312 -2.5625 16.8125 C-2.42779297 15.75740234 -2.29308594 14.70230469 -2.15429688 13.61523438 C-2.02216797 12.59365234 -1.89003906 11.57207031 -1.75390625 10.51953125 C-1.63345947 9.58214111 -1.5130127 8.64475098 -1.38891602 7.67895508 C-1.01385729 5.09545266 -0.53679064 2.55431322 0 0 Z " fill="#474748" transform="translate(237,27)"/>
<path d="M0 0 C0.66 0.33 1.32 0.66 2 1 C2.50244141 2.74658203 2.50244141 2.74658203 2.8515625 5.0078125 C2.98046875 5.83023438 3.109375 6.65265625 3.2421875 7.5 C3.36851562 8.36625 3.49484375 9.2325 3.625 10.125 C3.7590625 10.96804687 3.893125 11.81109375 4.03125 12.6796875 C4.76644941 17.51099791 5.14562777 22.11485015 5 27 C2.36 27 -0.28 27 -3 27 C-3.17159443 20.82260045 -2.53731344 15.08370312 -1.5 9 C-1.35691406 8.12988281 -1.21382813 7.25976562 -1.06640625 6.36328125 C-0.71661973 4.24124305 -0.3591135 2.12047972 0 0 Z " fill="#444444" transform="translate(309,28)"/>
<path d="M0 0 C5.28 0 10.56 0 16 0 C16 0.99 16 1.98 16 3 C14.02 3 12.04 3 10 3 C10 8.28 10 13.56 10 19 C8.68 19 7.36 19 6 19 C6 13.72 6 8.44 6 3 C4.02 3 2.04 3 0 3 C0 2.01 0 1.02 0 0 Z " fill="#FCFCFD" transform="translate(313,86)"/>
<path d="M0 0 C5.28 0 10.56 0 16 0 C16 0.99 16 1.98 16 3 C14.02 3 12.04 3 10 3 C10 8.28 10 13.56 10 19 C8.68 19 7.36 19 6 19 C6 13.72 6 8.44 6 3 C4.02 3 2.04 3 0 3 C0 2.01 0 1.02 0 0 Z " fill="#FCFCFC" transform="translate(180,86)"/>
<path d="M0 0 C5.28 0 10.56 0 16 0 C16 0.99 16 1.98 16 3 C14.02 3 12.04 3 10 3 C10 8.28 10 13.56 10 19 C8.68 19 7.36 19 6 19 C6 13.72 6 8.44 6 3 C4.02 3 2.04 3 0 3 C0 2.01 0 1.02 0 0 Z " fill="#FDFDFE" transform="translate(125,86)"/>
<path d="M0 0 C2.97 0 5.94 0 9 0 C9 0.33 9 0.66 9 1 C7.7934375 1.185625 7.7934375 1.185625 6.5625 1.375 C5.716875 1.58125 4.87125 1.7875 4 2 C3.67 2.66 3.34 3.32 3 4 C6.3 3.34 9.6 2.68 13 2 C13 5.96 13 9.92 13 14 C12.34 13.67 11.68 13.34 11 13 C9.12943209 12.7724985 7.25314042 12.59037189 5.375 12.4375 C4.37210937 12.35371094 3.36921875 12.26992187 2.3359375 12.18359375 C1.17964844 12.09271484 1.17964844 12.09271484 0 12 C0 10.68 0 9.36 0 8 C2.64 8 5.28 8 8 8 C8 7.01 8 6.02 8 5 C5.36 5 2.72 5 0 5 C0 3.35 0 1.7 0 0 Z " fill="#363636" transform="translate(91,89)"/>
<path d="M0 0 C1.32 0 2.64 0 4 0 C4 6.27 4 12.54 4 19 C2.68 19 1.36 19 0 19 C0 12.73 0 6.46 0 0 Z " fill="#FEFEFE" transform="translate(219,86)"/>
<path d="M0 0 C2 1 2 1 4 3 C4.1953125 6.0390625 4.1953125 6.0390625 4.125 9.625 C4.10695313 10.81351563 4.08890625 12.00203125 4.0703125 13.2265625 C4.04710938 14.14179687 4.02390625 15.05703125 4 16 C1.81302498 13.20375042 0.00847187 10.36692128 -1.6875 7.25 C-2.12449219 6.45078125 -2.56148438 5.6515625 -3.01171875 4.828125 C-3.50091797 3.92320313 -3.50091797 3.92320313 -4 3 C-2.68 2.01 -1.36 1.02 0 0 Z " fill="#3C3C3D" transform="translate(113,83)"/>
<path d="M0 0 C2.54281669 2.54281669 2.83163405 4.52643671 3.6875 8 C3.95949219 9.0725 4.23148437 10.145 4.51171875 11.25 C5 14 5 14 4 16 C2.66666667 15.33333333 1.33333333 14.66666667 0 14 C0 9.38 0 4.76 0 0 Z " fill="#494949" transform="translate(253,91)"/>
<path d="M0 0 C1.65 0 3.3 0 5 0 C5.66 1.32 6.32 2.64 7 4 C5 6 5 6 2.375 6.125 C1.59125 6.08375 0.8075 6.0425 0 6 C0 4.02 0 2.04 0 0 Z " fill="#505050" transform="translate(166,89)"/>
<path d="M0 0 C2.97 0 5.94 0 9 0 C9 0.33 9 0.66 9 1 C7.7934375 1.185625 7.7934375 1.185625 6.5625 1.375 C5.716875 1.58125 4.87125 1.7875 4 2 C3.67 2.66 3.34 3.32 3 4 C4.65 4 6.3 4 8 4 C8 4.33 8 4.66 8 5 C5.36 5 2.72 5 0 5 C0 3.35 0 1.7 0 0 Z " fill="#515152" transform="translate(91,89)"/>
<path d="M0 0 C0.66 0.33 1.32 0.66 2 1 C2.40729228 3.32156597 2.74438677 5.6568787 3 8 C1.68 8 0.36 8 -1 8 C-0.67 5.36 -0.34 2.72 0 0 Z " fill="#474749" transform="translate(205,90)"/>
</svg>
